<svg xmlns="http://www.w3.org/2000/svg" xmlns:xlink="http://www.w3.org/1999/xlink" version="1.1" x="0px" y="0px" viewBox="0 0 100 102.5025" enable-background="new 0 0 100 82.002" xml:space="preserve"><g><path d="M94.494,40.333c0-0.037-0.007-0.073-0.01-0.112c0-0.017-0.002-0.033-0.002-0.053c-0.005-0.028-0.009-0.054-0.013-0.081   c-0.005-0.034-0.008-0.065-0.017-0.092v-0.012c-0.108-0.696-0.436-1.348-0.939-1.852c-2.872-3.404-6.284-6.431-9.759-9.197   c-7.479-5.958-16.036-10.945-25.479-12.95c-5.456-1.161-10.944-1.211-16.433-0.232c-4.989,0.896-9.801,2.752-14.304,5.055   c-7.044,3.6-13.481,8.563-19.084,14.127c-1.038,1.03-2.068,2.081-3.012,3.2c-1.256,1.49-1.256,3.247,0,4.741   c2.869,3.4,6.283,6.43,9.757,9.195c7.483,5.957,16.034,10.944,25.477,12.953c5.46,1.157,10.952,1.209,16.436,0.229   c4.993-0.895,9.798-2.75,14.302-5.051c7.047-3.603,13.48-8.562,19.091-14.126c1.034-1.031,2.067-2.081,3.01-3.201   c0.505-0.504,0.83-1.156,0.939-1.854l0.006-0.006c0.003-0.033,0.006-0.063,0.011-0.097c0.004-0.025,0.013-0.054,0.013-0.079   c0.002-0.017,0.002-0.036,0.005-0.056c0-0.037,0.006-0.073,0.006-0.112c0-0.053,0.006-0.112,0.006-0.167   C94.499,40.448,94.494,40.389,94.494,40.333z M49.499,57.816c-9.563,0-17.315-7.748-17.315-17.315   c0-9.56,7.752-17.316,17.315-17.316c9.562,0,17.319,7.756,17.319,17.316C66.816,50.068,59.06,57.816,49.499,57.816z"/><path d="M49.499,34.772c3.166,0,5.734,2.565,5.734,5.729c0,3.171-2.568,5.733-5.734,5.733c-3.168,0-5.733-2.562-5.733-5.733   C43.764,37.337,46.33,34.772,49.499,34.772z"/></g><text x="0" y="97.002" fill="#000000" font-size="5px" font-weight="bold" font-family="'Helvetica Neue', Helvetica, Arial-Unicode, Arial, Sans-serif">Created by José Campos</text><text x="0" y="102.002" fill="#000000" font-size="5px" font-weight="bold" font-family="'Helvetica Neue', Helvetica, Arial-Unicode, Arial, Sans-serif">from the Noun Project</text></svg>