<svg xmlns="http://www.w3.org/2000/svg" xmlns:xlink="http://www.w3.org/1999/xlink" version="1.1" x="0px" y="0px" viewBox="0 0 64 80" enable-background="new 0 0 64 64" xml:space="preserve"><g><path d="M53.778,13.332c-2.69-2.69-6.268-4.172-10.072-4.172s-7.382,1.481-10.071,4.172L32,14.965l-1.634-1.634   c-2.69-2.69-6.267-4.172-10.072-4.172c-3.805,0-7.382,1.481-10.072,4.172c-5.554,5.554-5.554,14.59,0,20.144l21.071,21.071   c0.195,0.195,0.451,0.293,0.707,0.293s0.512-0.098,0.707-0.293l21.071-21.071C59.332,27.922,59.332,18.885,53.778,13.332z"/></g><text x="0" y="79" fill="#000000" font-size="5px" font-weight="bold" font-family="'Helvetica Neue', Helvetica, Arial-Unicode, Arial, Sans-serif">Created by Ralf Schmitzer</text><text x="0" y="84" fill="#000000" font-size="5px" font-weight="bold" font-family="'Helvetica Neue', Helvetica, Arial-Unicode, Arial, Sans-serif">from the Noun Project</text></svg>