<svg xmlns="http://www.w3.org/2000/svg" xmlns:xlink="http://www.w3.org/1999/xlink" version="1.1" x="0px" y="0px" viewBox="0 0 100 125" enable-background="new 0 0 100 100" xml:space="preserve"><path d="M75.1,50c0-6.7-2.6-13-7.3-17.7c-4.7-4.7-11-7.3-17.7-7.3c-6.7,0-13,2.6-17.7,7.3c-9,9-9.8,23.5-1.9,33.3  c-1,2-2.2,3.3-3.5,3.9c-1.1,0.5-1.7,1.7-1.5,3c0.2,1.2,1.1,2.2,2.4,2.4c0.6,0.1,1.2,0.1,1.8,0.1c3,0,6.2-1,8.8-2.8  C42,74.1,46,75.1,50,75.1c6.7,0,13-2.6,17.7-7.3C72.5,63,75.1,56.7,75.1,50z M50,71.2c-3.8,0-7.5-1-10.7-2.9c-0.3-0.2-0.6-0.3-1-0.3  c-0.4,0-0.8,0.1-1.2,0.4c-2.1,1.6-4.2,2.3-5.8,2.6c1.2-1.2,2.2-2.8,3.1-4.9c0.3-0.7,0.2-1.5-0.3-2.1c-7.4-8.4-7-21.1,0.9-29  c4-4,9.3-6.2,15-6.2c5.7,0,11,2.2,15,6.2c4,4,6.2,9.3,6.2,15c0,5.7-2.2,11-6.2,15C61,69,55.7,71.2,50,71.2z M52.4,50  c0,1.3-1.1,2.4-2.4,2.4c-1.3,0-2.4-1.1-2.4-2.4s1.1-2.4,2.4-2.4C51.3,47.6,52.4,48.7,52.4,50z M60.6,50c0,1.3-1.1,2.4-2.4,2.4  c-1.3,0-2.4-1.1-2.4-2.4s1.1-2.4,2.4-2.4C59.5,47.6,60.6,48.7,60.6,50z M44.2,50c0,1.3-1.1,2.4-2.4,2.4s-2.4-1.1-2.4-2.4  s1.1-2.4,2.4-2.4S44.2,48.7,44.2,50z"/><text x="0" y="115" fill="#000000" font-size="5px" font-weight="bold" font-family="'Helvetica Neue', Helvetica, Arial-Unicode, Arial, Sans-serif">Created by Gregor Cresnar</text><text x="0" y="120" fill="#000000" font-size="5px" font-weight="bold" font-family="'Helvetica Neue', Helvetica, Arial-Unicode, Arial, Sans-serif">from the Noun Project</text></svg>