<svg xmlns="http://www.w3.org/2000/svg" xmlns:xlink="http://www.w3.org/1999/xlink" version="1.1" x="0px" y="0px" viewBox="0 0 100 125" style="enable-background:new 0 0 100 100;" xml:space="preserve"><g><path d="M12.6,44.3l3.4,1.5v27.7c0,1.1,0.9,2,2,2s2-0.9,2-2v-26l4.8,2.1v13.8c0,0.8,0.5,1.5,1.2,1.8l23.1,10   c0.3,0.1,0.5,0.2,0.8,0.2s0.5-0.1,0.8-0.2l23.1-10c0.7-0.3,1.2-1,1.2-1.8V49.6l12.2-5.3c0.7-0.3,1.2-1,1.2-1.8s-0.5-1.5-1.2-1.8   L50.8,24.7c-0.5-0.2-1.1-0.2-1.6,0L12.6,40.6c-0.7,0.3-1.2,1-1.2,1.8S11.9,43.9,12.6,44.3z M71.1,62.1L50,71.2l-21.1-9.2V51.3   l20.3,8.8c0.3,0.1,0.5,0.2,0.8,0.2s0.5-0.1,0.8-0.2l20.3-8.8V62.1z M50,28.8l31.5,13.7L50,56.1L18.5,42.4L50,28.8z"/></g><text x="0" y="115" fill="#000000" font-size="5px" font-weight="bold" font-family="'Helvetica Neue', Helvetica, Arial-Unicode, Arial, Sans-serif">Created by mikicon</text><text x="0" y="120" fill="#000000" font-size="5px" font-weight="bold" font-family="'Helvetica Neue', Helvetica, Arial-Unicode, Arial, Sans-serif">from the Noun Project</text></svg>